<svg width="25" height="25" viewBox="0 0 25 25" fill="none" xmlns="http://www.w3.org/2000/svg">
<path fill-rule="evenodd" clip-rule="evenodd" d="M12.5 24.5C19.1274 24.5 24.5 19.1274 24.5 12.5C24.5 5.87258 19.1274 0.5 12.5 0.5C5.87258 0.5 0.5 5.87258 0.5 12.5C0.5 19.1274 5.87258 24.5 12.5 24.5Z" fill="#F0F0F5"/>
<path fill-rule="evenodd" clip-rule="evenodd" d="M12.3 17.5C12.7418 17.5 13.1 17.1418 13.1 16.7V13.2273H16.5727C16.9744 13.2273 17.3 12.9017 17.3 12.5C17.3 12.0983 16.9744 11.7727 16.5727 11.7727H13.1V8.3C13.1 7.85817 12.7418 7.5 12.3 7.5C11.8582 7.5 11.5 7.85817 11.5 8.3V11.7727H8.02726C7.6256 11.7727 7.29999 12.0983 7.29999 12.5C7.29999 12.9017 7.6256 13.2273 8.02726 13.2273H11.5V16.7C11.5 17.1418 11.8582 17.5 12.3 17.5Z" fill="#595CFF"/>
</svg>
